<svg version="1.1" id="Layer_1" xmlns="http://www.w3.org/2000/svg" xmlns:xlink="http://www.w3.org/1999/xlink" x="0px" y="0px"
	 width="100%" viewBox="0 0 225 225" enable-background="new 0 0 225 225" xml:space="preserve">
<path fill="#FEFEFE" opacity="1.000000" stroke="none" 
	d="
M154.000000,226.000000 
	C102.666672,226.000000 51.833340,226.000000 1.000007,226.000000 
	C1.000005,151.000000 1.000005,76.000015 1.000002,1.000017 
	C75.999992,1.000011 150.999985,1.000011 225.999969,1.000006 
	C225.999985,75.999985 225.999985,150.999969 226.000000,225.999969 
	C202.166672,226.000000 178.333328,226.000000 154.000000,226.000000 
M81.861969,201.758530 
	C96.260605,206.619598 110.916946,208.164078 126.083405,206.253708 
	C176.459717,199.908295 213.194244,152.048950 206.264099,101.466774 
	C198.848465,47.341007 148.424026,11.184600 95.121025,21.772594 
	C54.460003,29.849413 23.285221,64.610031 20.066593,105.460068 
	C16.745945,147.604935 41.979210,187.203705 81.861969,201.758530 
z"/>
<path fill="#010101" opacity="1.000000" stroke="none" 
	d="
M81.521255,201.562622 
	C41.979210,187.203705 16.745945,147.604935 20.066593,105.460068 
	C23.285221,64.610031 54.460003,29.849413 95.121025,21.772594 
	C148.424026,11.184600 198.848465,47.341007 206.264099,101.466774 
	C213.194244,152.048950 176.459717,199.908295 126.083405,206.253708 
	C110.916946,208.164078 96.260605,206.619598 81.521255,201.562622 
M131.915924,77.377647 
	C127.674782,77.868668 123.433640,78.359680 119.207306,78.848984 
	C119.207306,82.411766 119.207306,85.517456 119.207306,89.156082 
	C123.601425,89.156082 127.819809,89.156082 132.256454,89.156082 
	C132.256454,109.974304 132.256454,130.254852 132.256454,150.711334 
	C137.389130,150.711334 142.280151,150.711334 147.001343,150.711334 
	C147.001343,125.679672 147.001343,100.939209 147.001343,75.999825 
	C142.057251,76.437622 137.439056,76.846558 131.915924,77.377647 
M93.932701,94.791206 
	C91.039948,94.791206 88.147202,94.791206 84.832336,94.791206 
	C84.832336,101.375664 84.832336,107.277443 84.832336,113.407654 
	C78.609894,113.407654 72.831345,113.407654 66.831940,113.407654 
	C66.831940,116.709785 66.831940,119.750984 66.831940,123.166931 
	C73.089882,123.166931 79.009460,123.166931 85.394730,123.166931 
	C85.394730,129.597153 85.394730,135.657623 85.394730,141.544952 
	C88.795456,141.544952 91.712708,141.544952 95.112534,141.544952 
	C95.112534,135.181168 95.112534,129.130951 95.112534,122.765610 
	C101.531891,122.765610 107.455353,122.765610 113.481476,122.765610 
	C113.481476,119.515633 113.481476,116.616684 113.481476,113.158417 
	C107.187950,113.158417 101.155060,113.158417 94.713821,113.158417 
	C94.713821,106.803215 94.713821,101.010651 93.932701,94.791206 
z"/>
<path fill="#FCFCFC" opacity="1.000000" stroke="none" 
	d="
M132.368393,77.316574 
	C137.439056,76.846558 142.057251,76.437622 147.001343,75.999825 
	C147.001343,100.939209 147.001343,125.679672 147.001343,150.711334 
	C142.280151,150.711334 137.389130,150.711334 132.256454,150.711334 
	C132.256454,130.254852 132.256454,109.974304 132.256454,89.156082 
	C127.819809,89.156082 123.601425,89.156082 119.207306,89.156082 
	C119.207306,85.517456 119.207306,82.411766 119.207306,78.848984 
	C123.433640,78.359680 127.674782,77.868668 132.368393,77.316574 
z"/>
<path fill="#F4F4F4" opacity="1.000000" stroke="none" 
	d="
M94.323257,95.004646 
	C94.713821,101.010651 94.713821,106.803215 94.713821,113.158417 
	C101.155060,113.158417 107.187950,113.158417 113.481476,113.158417 
	C113.481476,116.616684 113.481476,119.515633 113.481476,122.765610 
	C107.455353,122.765610 101.531891,122.765610 95.112534,122.765610 
	C95.112534,129.130951 95.112534,135.181168 95.112534,141.544952 
	C91.712708,141.544952 88.795456,141.544952 85.394730,141.544952 
	C85.394730,135.657623 85.394730,129.597153 85.394730,123.166931 
	C79.009460,123.166931 73.089882,123.166931 66.831940,123.166931 
	C66.831940,119.750984 66.831940,116.709785 66.831940,113.407654 
	C72.831345,113.407654 78.609894,113.407654 84.832336,113.407654 
	C84.832336,107.277443 84.832336,101.375664 84.832336,94.791206 
	C88.147202,94.791206 91.039948,94.791206 94.323257,95.004646 
z"/>
</svg>